<mxfile host="app.diagrams.net" modified="2020-11-17T00:36:09.971Z" agent="5.0 (Windows NT 10.0; Win64; x64) AppleWebKit/537.36 (KHTML, like Gecko) Chrome/86.0.4240.193 Safari/537.36" etag="uHdfDtaGr81phoQ_cph2" version="13.9.9" type="github">
  <diagram name="Page-1" id="74e2e168-ea6b-b213-b513-2b3c1d86103e">
    <mxGraphModel dx="1108" dy="520" grid="0" gridSize="10" guides="1" tooltips="1" connect="1" arrows="1" fold="1" page="1" pageScale="1" pageWidth="1100" pageHeight="850" background="#ffffff" math="0" shadow="0">
      <root>
        <mxCell id="0" />
        <mxCell id="1" parent="0" />
        <mxCell id="77e6c97f196da883-1" value="Pool" style="swimlane;html=1;childLayout=stackLayout;startSize=20;rounded=0;shadow=0;labelBackgroundColor=none;strokeWidth=1;fontFamily=Verdana;fontSize=8;align=center;" parent="1" vertex="1">
          <mxGeometry x="70" y="40" width="960" height="750" as="geometry" />
        </mxCell>
        <mxCell id="77e6c97f196da883-2" value="Lane 1" style="swimlane;html=1;startSize=20;" parent="77e6c97f196da883-1" vertex="1">
          <mxGeometry y="20" width="160" height="730" as="geometry" />
        </mxCell>
        <mxCell id="SZO6Ftw2i5ary1eEEIDR-2" value="Entry" style="ellipse;whiteSpace=wrap;html=1;aspect=fixed;" vertex="1" parent="77e6c97f196da883-2">
          <mxGeometry x="40" y="55" width="80" height="80" as="geometry" />
        </mxCell>
        <mxCell id="77e6c97f196da883-26" style="edgeStyle=orthogonalEdgeStyle;rounded=1;html=1;labelBackgroundColor=none;startArrow=none;startFill=0;startSize=5;endArrow=classicThin;endFill=1;endSize=5;jettySize=auto;orthogonalLoop=1;strokeWidth=1;fontFamily=Verdana;fontSize=8" parent="77e6c97f196da883-1" edge="1">
          <mxGeometry relative="1" as="geometry">
            <mxPoint x="120" y="115" as="sourcePoint" />
            <mxPoint x="190" y="115" as="targetPoint" />
          </mxGeometry>
        </mxCell>
        <mxCell id="77e6c97f196da883-3" value="Lane 2" style="swimlane;html=1;startSize=20;" parent="77e6c97f196da883-1" vertex="1">
          <mxGeometry x="160" y="20" width="160" height="730" as="geometry" />
        </mxCell>
        <mxCell id="SZO6Ftw2i5ary1eEEIDR-1" value="Onboarding Page" style="rounded=1;whiteSpace=wrap;html=1;" vertex="1" parent="77e6c97f196da883-3">
          <mxGeometry x="30" y="65" width="120" height="60" as="geometry" />
        </mxCell>
        <mxCell id="77e6c97f196da883-4" value="Lane 3" style="swimlane;html=1;startSize=20;" parent="77e6c97f196da883-1" vertex="1">
          <mxGeometry x="320" y="20" width="160" height="730" as="geometry" />
        </mxCell>
        <mxCell id="SZO6Ftw2i5ary1eEEIDR-3" value="Sign In" style="rounded=1;whiteSpace=wrap;html=1;" vertex="1" parent="77e6c97f196da883-4">
          <mxGeometry x="30" y="65" width="120" height="60" as="geometry" />
        </mxCell>
        <mxCell id="SZO6Ftw2i5ary1eEEIDR-5" value="&lt;font style=&quot;font-size: 10px&quot;&gt;&lt;b&gt;Not Signed Up&lt;/b&gt;&lt;/font&gt;" style="triangle;whiteSpace=wrap;html=1;rotation=0;" vertex="1" parent="77e6c97f196da883-4">
          <mxGeometry x="74" y="140" width="60" height="80" as="geometry" />
        </mxCell>
        <mxCell id="SZO6Ftw2i5ary1eEEIDR-6" style="edgeStyle=orthogonalEdgeStyle;rounded=0;orthogonalLoop=1;jettySize=auto;html=1;exitX=1;exitY=0.5;exitDx=0;exitDy=0;" edge="1" parent="77e6c97f196da883-4" source="SZO6Ftw2i5ary1eEEIDR-3" target="SZO6Ftw2i5ary1eEEIDR-5">
          <mxGeometry relative="1" as="geometry" />
        </mxCell>
        <mxCell id="77e6c97f196da883-5" value="Lane 4" style="swimlane;html=1;startSize=20;" parent="77e6c97f196da883-1" vertex="1">
          <mxGeometry x="480" y="20" width="160" height="730" as="geometry" />
        </mxCell>
        <mxCell id="SZO6Ftw2i5ary1eEEIDR-7" value="Sign In" style="rounded=1;whiteSpace=wrap;html=1;" vertex="1" parent="77e6c97f196da883-5">
          <mxGeometry x="20" y="65" width="120" height="60" as="geometry" />
        </mxCell>
        <mxCell id="SZO6Ftw2i5ary1eEEIDR-9" value="Sign Up" style="rounded=1;whiteSpace=wrap;html=1;" vertex="1" parent="77e6c97f196da883-5">
          <mxGeometry x="26" y="150" width="120" height="60" as="geometry" />
        </mxCell>
        <mxCell id="SZO6Ftw2i5ary1eEEIDR-36" style="edgeStyle=orthogonalEdgeStyle;rounded=0;orthogonalLoop=1;jettySize=auto;html=1;exitX=0.5;exitY=1;exitDx=0;exitDy=0;" edge="1" parent="77e6c97f196da883-5" source="SZO6Ftw2i5ary1eEEIDR-28" target="SZO6Ftw2i5ary1eEEIDR-31">
          <mxGeometry relative="1" as="geometry" />
        </mxCell>
        <mxCell id="SZO6Ftw2i5ary1eEEIDR-28" value="&lt;font style=&quot;font-size: 10px&quot;&gt;&lt;b&gt;Selects Favorites&lt;/b&gt;&lt;/font&gt;" style="triangle;whiteSpace=wrap;html=1;rotation=0;" vertex="1" parent="77e6c97f196da883-5">
          <mxGeometry x="56" y="250" width="48" height="45" as="geometry" />
        </mxCell>
        <mxCell id="SZO6Ftw2i5ary1eEEIDR-38" style="edgeStyle=orthogonalEdgeStyle;rounded=0;orthogonalLoop=1;jettySize=auto;html=1;exitX=0.5;exitY=1;exitDx=0;exitDy=0;" edge="1" parent="77e6c97f196da883-5" source="SZO6Ftw2i5ary1eEEIDR-31" target="SZO6Ftw2i5ary1eEEIDR-37">
          <mxGeometry relative="1" as="geometry" />
        </mxCell>
        <mxCell id="SZO6Ftw2i5ary1eEEIDR-31" value="Bookmark Pages" style="rounded=1;whiteSpace=wrap;html=1;" vertex="1" parent="77e6c97f196da883-5">
          <mxGeometry x="20" y="323" width="120" height="60" as="geometry" />
        </mxCell>
        <mxCell id="SZO6Ftw2i5ary1eEEIDR-37" value="&lt;font style=&quot;font-size: 10px&quot;&gt;&lt;b&gt;Selects a Mountain&lt;/b&gt;&lt;/font&gt;" style="triangle;whiteSpace=wrap;html=1;rotation=0;" vertex="1" parent="77e6c97f196da883-5">
          <mxGeometry x="59" y="429" width="42" height="63" as="geometry" />
        </mxCell>
        <mxCell id="77e6c97f196da883-6" value="Lane 5" style="swimlane;html=1;startSize=20;" parent="77e6c97f196da883-1" vertex="1">
          <mxGeometry x="640" y="20" width="160" height="730" as="geometry" />
        </mxCell>
        <mxCell id="SZO6Ftw2i5ary1eEEIDR-32" style="edgeStyle=orthogonalEdgeStyle;rounded=0;orthogonalLoop=1;jettySize=auto;html=1;exitX=0.5;exitY=1;exitDx=0;exitDy=0;entryX=0.5;entryY=0;entryDx=0;entryDy=0;" edge="1" parent="77e6c97f196da883-6" source="SZO6Ftw2i5ary1eEEIDR-11" target="SZO6Ftw2i5ary1eEEIDR-17">
          <mxGeometry relative="1" as="geometry" />
        </mxCell>
        <mxCell id="SZO6Ftw2i5ary1eEEIDR-11" value="Home Page" style="rounded=1;whiteSpace=wrap;html=1;" vertex="1" parent="77e6c97f196da883-6">
          <mxGeometry x="28" y="90" width="100" height="120" as="geometry" />
        </mxCell>
        <mxCell id="SZO6Ftw2i5ary1eEEIDR-19" style="edgeStyle=orthogonalEdgeStyle;rounded=0;orthogonalLoop=1;jettySize=auto;html=1;exitX=0.5;exitY=1;exitDx=0;exitDy=0;" edge="1" parent="77e6c97f196da883-6" source="SZO6Ftw2i5ary1eEEIDR-17" target="SZO6Ftw2i5ary1eEEIDR-18">
          <mxGeometry relative="1" as="geometry" />
        </mxCell>
        <mxCell id="SZO6Ftw2i5ary1eEEIDR-17" value="&lt;font style=&quot;font-size: 10px&quot;&gt;&lt;b&gt;Selects a mountain&lt;/b&gt;&lt;/font&gt;" style="triangle;whiteSpace=wrap;html=1;rotation=0;" vertex="1" parent="77e6c97f196da883-6">
          <mxGeometry x="48" y="275" width="60" height="54" as="geometry" />
        </mxCell>
        <mxCell id="SZO6Ftw2i5ary1eEEIDR-18" value="Mountain Information Page" style="rounded=1;whiteSpace=wrap;html=1;" vertex="1" parent="77e6c97f196da883-6">
          <mxGeometry x="18" y="430.5" width="120" height="60" as="geometry" />
        </mxCell>
        <mxCell id="77e6c97f196da883-7" value="Lane 6" style="swimlane;html=1;startSize=20;" parent="77e6c97f196da883-1" vertex="1">
          <mxGeometry x="800" y="20" width="160" height="730" as="geometry" />
        </mxCell>
        <mxCell id="SZO6Ftw2i5ary1eEEIDR-34" style="edgeStyle=orthogonalEdgeStyle;rounded=0;orthogonalLoop=1;jettySize=auto;html=1;exitX=1;exitY=0.5;exitDx=0;exitDy=0;entryX=0.5;entryY=0;entryDx=0;entryDy=0;" edge="1" parent="77e6c97f196da883-7" source="SZO6Ftw2i5ary1eEEIDR-20" target="SZO6Ftw2i5ary1eEEIDR-22">
          <mxGeometry relative="1" as="geometry" />
        </mxCell>
        <mxCell id="SZO6Ftw2i5ary1eEEIDR-20" value="&lt;font style=&quot;font-size: 10px&quot;&gt;&lt;b&gt;Selects Search&lt;/b&gt;&lt;/font&gt;" style="triangle;whiteSpace=wrap;html=1;rotation=0;" vertex="1" parent="77e6c97f196da883-7">
          <mxGeometry y="147" width="60" height="80" as="geometry" />
        </mxCell>
        <mxCell id="SZO6Ftw2i5ary1eEEIDR-22" value="Mountain Listings&amp;nbsp;" style="rounded=1;whiteSpace=wrap;html=1;" vertex="1" parent="77e6c97f196da883-7">
          <mxGeometry x="20" y="272" width="120" height="60" as="geometry" />
        </mxCell>
        <mxCell id="SZO6Ftw2i5ary1eEEIDR-4" style="edgeStyle=orthogonalEdgeStyle;rounded=0;orthogonalLoop=1;jettySize=auto;html=1;exitX=1;exitY=0.5;exitDx=0;exitDy=0;entryX=0;entryY=0.5;entryDx=0;entryDy=0;" edge="1" parent="77e6c97f196da883-1" source="SZO6Ftw2i5ary1eEEIDR-1" target="SZO6Ftw2i5ary1eEEIDR-3">
          <mxGeometry relative="1" as="geometry" />
        </mxCell>
        <mxCell id="SZO6Ftw2i5ary1eEEIDR-8" style="edgeStyle=orthogonalEdgeStyle;rounded=0;orthogonalLoop=1;jettySize=auto;html=1;exitX=1;exitY=0.5;exitDx=0;exitDy=0;entryX=0;entryY=0.5;entryDx=0;entryDy=0;" edge="1" parent="77e6c97f196da883-1" source="SZO6Ftw2i5ary1eEEIDR-3" target="SZO6Ftw2i5ary1eEEIDR-7">
          <mxGeometry relative="1" as="geometry" />
        </mxCell>
        <mxCell id="SZO6Ftw2i5ary1eEEIDR-10" style="edgeStyle=orthogonalEdgeStyle;rounded=0;orthogonalLoop=1;jettySize=auto;html=1;exitX=1;exitY=0.5;exitDx=0;exitDy=0;" edge="1" parent="77e6c97f196da883-1" source="SZO6Ftw2i5ary1eEEIDR-5" target="SZO6Ftw2i5ary1eEEIDR-9">
          <mxGeometry relative="1" as="geometry" />
        </mxCell>
        <mxCell id="SZO6Ftw2i5ary1eEEIDR-12" style="edgeStyle=orthogonalEdgeStyle;rounded=0;orthogonalLoop=1;jettySize=auto;html=1;exitX=1;exitY=0.5;exitDx=0;exitDy=0;" edge="1" parent="77e6c97f196da883-1" source="SZO6Ftw2i5ary1eEEIDR-9">
          <mxGeometry relative="1" as="geometry">
            <mxPoint x="668" y="200" as="targetPoint" />
          </mxGeometry>
        </mxCell>
        <mxCell id="SZO6Ftw2i5ary1eEEIDR-13" style="edgeStyle=orthogonalEdgeStyle;rounded=0;orthogonalLoop=1;jettySize=auto;html=1;exitX=1;exitY=0.5;exitDx=0;exitDy=0;entryX=0;entryY=0.25;entryDx=0;entryDy=0;" edge="1" parent="77e6c97f196da883-1" source="SZO6Ftw2i5ary1eEEIDR-7" target="SZO6Ftw2i5ary1eEEIDR-11">
          <mxGeometry relative="1" as="geometry" />
        </mxCell>
        <mxCell id="SZO6Ftw2i5ary1eEEIDR-29" style="edgeStyle=orthogonalEdgeStyle;rounded=0;orthogonalLoop=1;jettySize=auto;html=1;exitX=0;exitY=1;exitDx=0;exitDy=0;entryX=0.5;entryY=0;entryDx=0;entryDy=0;" edge="1" parent="77e6c97f196da883-1" source="SZO6Ftw2i5ary1eEEIDR-11" target="SZO6Ftw2i5ary1eEEIDR-28">
          <mxGeometry relative="1" as="geometry" />
        </mxCell>
        <mxCell id="SZO6Ftw2i5ary1eEEIDR-33" style="edgeStyle=orthogonalEdgeStyle;rounded=0;orthogonalLoop=1;jettySize=auto;html=1;exitX=1;exitY=0.5;exitDx=0;exitDy=0;" edge="1" parent="77e6c97f196da883-1" source="SZO6Ftw2i5ary1eEEIDR-11" target="SZO6Ftw2i5ary1eEEIDR-20">
          <mxGeometry relative="1" as="geometry" />
        </mxCell>
        <mxCell id="SZO6Ftw2i5ary1eEEIDR-35" style="edgeStyle=orthogonalEdgeStyle;rounded=0;orthogonalLoop=1;jettySize=auto;html=1;exitX=0;exitY=0.5;exitDx=0;exitDy=0;" edge="1" parent="77e6c97f196da883-1" source="SZO6Ftw2i5ary1eEEIDR-22" target="SZO6Ftw2i5ary1eEEIDR-17">
          <mxGeometry relative="1" as="geometry" />
        </mxCell>
        <mxCell id="SZO6Ftw2i5ary1eEEIDR-39" style="edgeStyle=orthogonalEdgeStyle;rounded=0;orthogonalLoop=1;jettySize=auto;html=1;exitX=1;exitY=0.5;exitDx=0;exitDy=0;entryX=0;entryY=0.5;entryDx=0;entryDy=0;" edge="1" parent="77e6c97f196da883-1" source="SZO6Ftw2i5ary1eEEIDR-37" target="SZO6Ftw2i5ary1eEEIDR-18">
          <mxGeometry relative="1" as="geometry" />
        </mxCell>
      </root>
    </mxGraphModel>
  </diagram>
</mxfile>
